 <svg version="1.0" xmlns="http://www.w3.org/2000/svg"  width="141.000000pt" height="48.000000pt" viewBox="0 0 141.000000 48.000000"  preserveAspectRatio="xMidYMid meet">  <g transform="translate(0.000000,48.000000) scale(0.100000,-0.100000)" fill="#bcdf4d" stroke="none"> <path d="M118 402 c-88 -92 -111 -137 -111 -212 0 -48 23 -120 39 -120 2 0 0 9 -6 19 -5 11 -10 39 -10 63 0 54 34 110 112 186 l54 52 51 -52 c29 -29 57 -66 62 -81 25 -66 1 -150 -50 -177 -38 -21 -89 -17 -110 9 -27 33 -24 55 12 96 31 35 32 35 52 18 11 -10 26 -31 33 -48 l12 -30 11 28 c14 36 14 53 0 80 -16 31 -61 77 -75 77 -20 0 -111 -107 -124 -145 -15 -46 1 -95 41 -130 34 -28 62 -33 53 -10 -4 8 -12 15 -20 15 -18 0 -54 58 -54 88 0 32 16 60 58 105 41 42 52 45 75 19 24 -26 21 -33 -8 -20 -21 10 -30 8 -53 -9 -15 -11 -36 -35 -46 -54 -18 -33 -18 -37 -2 -71 19 -39 51 -58 98 -58 23 0 29 -4 24 -15 -7 -19 7 -19 42 -1 60 32 112 112 112 175 0 45 -48 123 -127 205 l-72 75 -73 -77z m99 13 c14 -14 13 -15 -8 -10 -19 5 -35 -3 -69 -32 -44 -37 -29 -11 20 34 30 27 37 28 57 8z"/> <path d="M920 376 l0 -94 60 -1 c50 0 62 3 75 21 22 33 19 75 -10 103 -28 29 -42 31 -72 10 -21 -15 -22 -15 -16 20 5 31 3 35 -16 35 -20 0 -21 -5 -21 -94z m110 -6 c16 -31 -4 -62 -38 -58 -28 3 -40 32 -28 64 8 21 54 17 66 -6z"/> <path d="M455 435 c-19 -18 -25 -35 -25 -65 0 -55 34 -90 87 -90 42 0 83 23 83 46 0 19 -24 18 -40 -2 -21 -24 -72 -14 -90 19 -13 24 -13 30 0 55 18 32 69 42 90 18 16 -20 40 -21 40 -2 0 47 -105 62 -145 21z"/> <path d="M657 410 c-20 -16 -27 -30 -27 -55 0 -39 27 -76 55 -76 11 1 37 1 58 1 l37 1 0 69 c0 70 0 70 -27 69 -16 0 -37 2 -48 6 -14 4 -30 -1 -48 -15z m81 -63 c-2 -25 -8 -33 -27 -35 -15 -3 -30 3 -38 14 -17 24 -17 30 7 54 30 30 62 11 58 -33z"/> <path d="M867 412 c-11 -10 -17 -12 -17 -4 0 7 -8 12 -17 12 -15 0 -18 -10 -18 -70 0 -60 3 -70 18 -70 14 0 17 9 17 50 0 45 3 50 25 56 14 3 25 12 25 19 0 22 -15 25 -33 7z"/> <path d="M1133 420 c-42 -17 -56 -77 -27 -118 23 -33 86 -31 114 5 26 33 20 68 -16 101 -27 24 -37 26 -71 12z m65 -73 c-2 -25 -8 -33 -27 -35 -15 -3 -30 3 -38 14 -17 24 -17 30 7 54 30 30 62 11 58 -33z"/> <path d="M1337 423 c-4 -3 -22 -6 -39 -5 l-33 1 0 -69 c0 -60 3 -70 18 -70 14 0 17 9 17 50 0 38 4 52 19 60 30 15 51 -12 51 -66 0 -32 4 -44 15 -44 12 0 15 13 15 59 0 51 -3 62 -22 75 -25 18 -32 19 -41 9z"/> <path d="M810 140 c0 -60 4 -100 10 -100 6 0 10 40 10 100 0 60 -4 100 -10 100 -6 0 -10 -40 -10 -100z"/> <path d="M870 140 c0 -60 4 -100 10 -100 6 0 10 40 10 100 0 60 -4 100 -10 100 -6 0 -10 -40 -10 -100z"/> <path d="M470 202 c-43 -44 -39 -112 9 -149 37 -28 131 -5 131 33 0 20 -13 17 -28 -6 -18 -29 -85 -28 -106 2 -25 35 -20 83 10 107 34 27 54 26 88 0 15 -12 30 -18 33 -15 13 12 -33 47 -70 53 -31 5 -40 1 -67 -25z"/> <path d="M665 165 c-31 -30 -33 -77 -5 -105 26 -26 81 -26 105 0 26 28 11 36 -20 12 -25 -20 -46 -20 -72 1 -29 22 -13 32 47 29 58 -4 60 -3 60 21 0 29 -41 67 -72 67 -10 0 -30 -11 -43 -25z m79 -11 c26 -26 18 -34 -34 -34 -54 0 -59 4 -33 32 20 22 46 23 67 2z"/> </g> </svg> 